<?xml version="1.0" standalone="no"?>
<!DOCTYPE svg PUBLIC "-//W3C//DTD SVG 20010904//EN"
 "http://www.w3.org/TR/2001/REC-SVG-20010904/DTD/svg10.dtd">
<svg version="1.0" xmlns="http://www.w3.org/2000/svg"
 width="242.000000pt" height="350.000000pt" viewBox="0 0 242.000000 350.000000"
 preserveAspectRatio="xMidYMid meet">

<g transform="translate(0.000000,350.000000) scale(0.100000,-0.100000)"
fill="#000000" stroke="none">
<path d="M400 2955 l0 -305 50 0 50 0 0 164 0 164 113 55 112 54 -110 55
c-103 51 -110 56 -113 86 -3 31 -4 32 -53 32 l-49 0 0 -305z"/>
<path d="M380 2415 l0 -215 178 2 177 3 3 213 2 212 -180 0 -180 0 0 -215z"/>
<path d="M380 1945 l0 -215 180 0 180 0 0 215 0 215 -180 0 -180 0 0 -215z"/>
<path d="M800 1945 l0 -215 180 0 180 0 0 215 0 215 -180 0 -180 0 0 -215z"/>
<path d="M1230 1945 l0 -215 180 0 180 0 0 215 0 215 -180 0 -180 0 0 -215z"/>
<path d="M1688 1808 c-5 -266 -6 -289 -31 -383 -83 -311 -318 -594 -617 -741
-82 -41 -232 -92 -294 -100 l-46 -7 0 507 0 506 -170 0 -170 0 0 -680 0 -680
148 0 c336 1 598 78 860 254 239 160 411 354 523 590 110 233 139 394 139 789
l0 227 -169 0 -169 0 -4 -282z"/>
</g>
</svg>
